<svg xmlns="http://www.w3.org/2000/svg" xmlns:xlink="http://www.w3.org/1999/xlink" width="15" height="15" viewBox="0 0 15 15">
  <defs>
    <clipPath id="clip-path">
      <rect id="Rectangle_1367" data-name="Rectangle 1367" width="15" height="15" transform="translate(28 295)" fill="#4054b2"/>
    </clipPath>
  </defs>
  <g id="Mask_Group_6" data-name="Mask Group 6" transform="translate(-28 -295)" clip-path="url(#clip-path)">
    <g id="_004-pin" data-name="004-pin" transform="translate(28 295)">
      <g id="Group_2871" data-name="Group 2871">
        <g id="Group_2870" data-name="Group 2870">
          <path id="Path_4307" data-name="Path 4307" d="M7.5,0A5.547,5.547,0,0,0,1.959,5.541a6.393,6.393,0,0,0,.47,2.133,8.936,8.936,0,0,0,.64,1.2l3.8,5.757a.723.723,0,0,0,1.263,0l3.8-5.757a8.9,8.9,0,0,0,.64-1.2,6.391,6.391,0,0,0,.47-2.133A5.547,5.547,0,0,0,7.5,0Zm4.47,7.421a8.188,8.188,0,0,1-.584,1.092l-3.8,5.757c-.075.114-.1.114-.174,0l-3.8-5.757A8.191,8.191,0,0,1,3.03,7.421a5.8,5.8,0,0,1-.419-1.88,4.889,4.889,0,0,1,9.778,0A5.808,5.808,0,0,1,11.97,7.421Z" fill="#4054b2"/>
          <path id="Path_4308" data-name="Path 4308" d="M7.5,2.608a2.934,2.934,0,1,0,2.934,2.934A2.937,2.937,0,0,0,7.5,2.608Zm0,5.215A2.282,2.282,0,1,1,9.782,5.541,2.284,2.284,0,0,1,7.5,7.823Z" fill="#4054b2"/>
        </g>
      </g>
    </g>
  </g>
</svg>
