<svg xmlns="http://www.w3.org/2000/svg" xmlns:xlink="http://www.w3.org/1999/xlink" width="15" height="15" viewBox="0 0 15 15">
  <defs>
    <clipPath id="clip-path">
      <rect id="Rectangle_1368" data-name="Rectangle 1368" width="15" height="15" transform="translate(28 373)" fill="#4054b2"/>
    </clipPath>
  </defs>
  <g id="Mask_Group_7" data-name="Mask Group 7" transform="translate(-28 -373)" clip-path="url(#clip-path)">
    <g id="_001-envelope" data-name="001-envelope" transform="translate(28 373)">
      <g id="Group_2873" data-name="Group 2873">
        <path id="Path_4309" data-name="Path 4309" d="M13.75,1.875H1.25A1.251,1.251,0,0,0,0,3.125v8.75a1.251,1.251,0,0,0,1.25,1.25h12.5A1.251,1.251,0,0,0,15,11.875V3.125A1.251,1.251,0,0,0,13.75,1.875ZM1.25,2.5h12.5a.6.6,0,0,1,.13.026c-1.082.99-4.671,4.273-5.926,5.4a.627.627,0,0,1-.907,0C5.791,6.8,2.2,3.516,1.12,2.526A.6.6,0,0,1,1.25,2.5ZM.625,11.875V3.125A.6.6,0,0,1,.66,2.952C1.488,3.71,3.992,6,5.616,7.477,4,8.867,1.493,11.242.658,12.038A.6.6,0,0,1,.625,11.875ZM13.75,12.5H1.25a.6.6,0,0,1-.141-.029c.863-.822,3.383-3.211,4.973-4.571l.546.494a1.248,1.248,0,0,0,1.744,0L8.918,7.9c1.59,1.36,4.11,3.748,4.973,4.571A.6.6,0,0,1,13.75,12.5Zm.625-.625a.6.6,0,0,1-.033.163c-.835-.8-3.339-3.171-4.958-4.561C11.008,6,13.511,3.711,14.34,2.952a.6.6,0,0,1,.035.173Z" fill="#4054b2"/>
      </g>
    </g>
  </g>
</svg>
